<svg width="173" height="22" viewBox="0 0 173 22" fill="none" xmlns="http://www.w3.org/2000/svg">
<path d="M98.6251 10.6535C98.5314 10.1901 98.3886 9.74479 98.2043 9.32184C97.7409 8.26075 97.009 7.34455 96.0949 6.65846C94.9816 5.82216 93.5988 5.32677 92.0998 5.32677C90.6009 5.32677 89.218 5.82216 88.1047 6.65846C87.1907 7.34455 86.4588 8.26075 85.9953 9.32184C85.811 9.74479 85.6683 10.1901 85.5745 10.6535C85.4872 11.0839 85.4414 11.5293 85.4414 11.9852C85.4414 12.4412 85.4872 12.8865 85.5745 13.3169C85.7738 14.3002 86.1914 15.2058 86.7731 15.9803C87.9865 17.5975 89.9212 18.6437 92.0998 18.6437C93.5988 18.6437 94.9816 18.1483 96.0949 17.312V18.6437H98.7583V11.9852C98.7572 11.5293 98.7125 11.085 98.6251 10.6535ZM95.8669 13.3169C95.3193 14.8681 93.8395 15.9803 92.0998 15.9803C90.3601 15.9803 88.8803 14.8681 88.3327 13.3169C88.1846 12.9004 88.1047 12.4519 88.1047 11.9852C88.1047 11.5186 88.1846 11.0701 88.3327 10.6535C88.5075 10.1571 88.778 9.70644 89.1222 9.32184C89.853 8.50472 90.9162 7.99015 92.0998 7.99015C93.2834 7.99015 94.3466 8.50472 95.0775 9.32184C95.4216 9.70644 95.6922 10.1571 95.8669 10.6535C96.015 11.0701 96.0949 11.5186 96.0949 11.9852C96.0949 12.4519 96.015 12.9014 95.8669 13.3169Z" fill="#111111"/>
<path d="M18.5712 21.5201H11.9852C11.5101 21.5201 11.0637 21.3955 10.677 21.176C9.86837 20.7201 9.32184 19.8529 9.32184 18.8568H15.9079C16.383 18.8568 16.8294 18.9814 17.2161 19.2009C18.0247 19.6579 18.5712 20.524 18.5712 21.5201Z" fill="#111111"/>
<path d="M18.2559 6.65846C18.1195 6.19823 17.948 5.75397 17.7445 5.32677C17.2992 4.38606 16.6994 3.53271 15.9792 2.79868C15.9356 2.75287 15.8897 2.70706 15.8439 2.66338C14.1639 1.01528 11.8606 0 9.32078 0C9.29415 0 9.26858 -2.32831e-10 9.24194 0.00106535C6.7341 0.0213071 4.4617 1.03233 2.79868 2.66338C2.75287 2.70706 2.70813 2.75287 2.66338 2.79868C1.9432 3.53271 1.34448 4.38606 0.898093 5.32677C0.694611 5.75397 0.523089 6.19823 0.386723 6.65846C0.1353 7.50222 0 8.39605 0 9.32184C0 9.77355 0.0319606 10.2189 0.0948165 10.6535C0.159803 11.1095 0.257816 11.5538 0.386723 11.9852C0.523089 12.4455 0.694611 12.8897 0.898093 13.3169C1.34448 14.2576 1.9432 15.111 2.66338 15.845C2.70813 15.8908 2.75287 15.9356 2.79868 15.9803C4.4617 17.6103 6.7341 18.6224 9.24301 18.6426C9.26964 18.6437 9.29521 18.6437 9.32184 18.6437C11.1297 18.6437 12.8183 18.1281 14.247 17.2364C14.8255 16.8773 15.3613 16.4544 15.845 15.9803C15.8908 15.9356 15.9366 15.8908 15.9803 15.845C16.7005 15.111 17.3003 14.2576 17.7456 13.3169C17.9491 12.8897 18.1206 12.4455 18.257 11.9852C18.3859 11.5538 18.4839 11.1095 18.5489 10.6535C18.6117 10.2189 18.6437 9.77355 18.6437 9.32184C18.6426 8.39712 18.5073 7.50222 18.2559 6.65846ZM15.8471 10.6535C15.7534 11.117 15.6106 11.5623 15.4263 11.9852C15.2186 12.4604 14.9576 12.9068 14.6486 13.3169C13.4352 14.9341 11.5005 15.9803 9.32184 15.9803H9.24301V15.9792C7.09632 15.9547 5.19466 14.915 3.99508 13.3169C3.68612 12.9068 3.42511 12.4604 3.21737 11.9852C3.03306 11.5623 2.8903 11.117 2.79655 10.6535C2.70919 10.2231 2.66338 9.77782 2.66338 9.32184C2.66338 8.37474 2.86154 7.47452 3.21737 6.65846C3.42511 6.18331 3.68612 5.73693 3.99508 5.32677C5.19466 3.72874 7.09632 2.68895 9.24301 2.66445V2.66338H9.32184C11.5005 2.66338 13.4352 3.70956 14.6486 5.32677C14.9576 5.73693 15.2186 6.18331 15.4263 6.65846C15.7821 7.47452 15.9803 8.37474 15.9803 9.32184C15.9792 9.77888 15.9345 10.2231 15.8471 10.6535Z" fill="#111111"/>
<path d="M53.6672 13.3169C53.7545 12.8865 53.8004 12.4412 53.8004 11.9852C53.8004 11.5293 53.7545 11.0839 53.6672 10.6535C53.5734 10.1901 53.4307 9.74479 53.2464 9.32184C52.7829 8.26075 52.051 7.34455 51.137 6.65846C50.0237 5.82216 48.6408 5.32677 47.1419 5.32677C45.6429 5.32677 44.2601 5.82216 43.1468 6.65846C42.6983 6.99511 42.2924 7.38823 41.9419 7.82609C41.5786 8.27993 41.2729 8.78171 41.0374 9.32184C40.8531 9.74479 40.7104 10.1901 40.6166 10.6535C40.5292 11.0839 40.4834 11.5293 40.4834 11.9852C40.4834 12.4412 40.5292 12.8865 40.6166 13.3169C40.8158 14.3002 41.2334 15.2058 41.8151 15.9803C43.0286 17.5975 44.9632 18.6437 47.1419 18.6437C49.246 18.6437 51.1221 17.6678 52.3419 16.1444L52.1363 15.9803L50.2293 14.4547C49.4974 15.3837 48.3628 15.9803 47.0886 15.9803C45.3489 15.9803 43.8691 14.8681 43.3215 13.3169H53.6672ZM43.3215 10.6535C43.4749 10.2167 43.7029 9.8151 43.9895 9.46354C44.0289 9.41559 44.0694 9.36765 44.111 9.32184C44.8418 8.50472 45.905 7.99015 47.0886 7.99015C48.2722 7.99015 49.3355 8.50472 50.0663 9.32184C50.4104 9.70644 50.681 10.1571 50.8557 10.6535H43.3215Z" fill="#111111"/>
<path d="M83.7102 13.3168C83.7975 12.8864 83.8433 12.4411 83.8433 11.9851C83.8433 11.5291 83.7975 11.0838 83.7102 10.6534C83.6164 10.19 83.4737 9.74468 83.2894 9.32174C82.8259 8.26064 82.094 7.34444 81.18 6.65835C80.0667 5.82205 78.6838 5.32666 77.1849 5.32666C75.6859 5.32666 74.3031 5.82205 73.1898 6.65835C72.7413 6.995 72.3354 7.38812 71.9849 7.82598C71.6216 8.27982 71.3159 8.7816 71.0804 9.32174C70.8961 9.74468 70.7534 10.19 70.6596 10.6534C70.5722 11.0838 70.5264 11.5291 70.5264 11.9851C70.5264 12.4411 70.5722 12.8864 70.6596 13.3168C70.8588 14.3001 71.2764 15.2057 71.8581 15.9802C73.0716 17.5974 75.0062 18.6436 77.1849 18.6436C79.289 18.6436 81.1651 17.6677 82.3849 16.1443L82.1793 15.9802L80.2723 14.4546C79.5404 15.3836 78.4058 15.9802 77.1316 15.9802C75.3919 15.9802 73.9121 14.868 73.3645 13.3168H83.7102ZM73.3645 10.6534C73.5179 10.2166 73.7459 9.81499 74.0325 9.46343C74.0719 9.41549 74.1124 9.36755 74.154 9.32174C74.8848 8.50461 75.948 7.99004 77.1316 7.99004C78.3152 7.99004 79.3785 8.50461 80.1093 9.32174C80.4534 9.70633 80.724 10.157 80.8987 10.6534H73.3645Z" fill="#111111"/>
<path d="M119 10.6535V18.6437H116.337V10.6535C116.337 10.1688 116.207 9.71389 115.98 9.32184C115.521 8.52602 114.66 7.99015 113.673 7.99015C112.687 7.99015 111.826 8.52602 111.367 9.32184C111.14 9.71389 111.01 10.1688 111.01 10.6535V18.6437H108.346V10.6535C108.346 10.1688 108.216 9.71389 107.99 9.32184C107.53 8.52602 106.67 7.99015 105.683 7.99015C104.697 7.99015 103.836 8.52602 103.377 9.32184C103.15 9.71389 103.02 10.1688 103.02 10.6535V18.6437H100.356V10.6535C100.356 10.1933 100.415 9.74799 100.525 9.32184C100.793 8.2746 101.374 7.352 102.161 6.65846C102.425 6.42515 102.713 6.2174 103.02 6.03949C103.803 5.58671 104.713 5.32677 105.683 5.32677C106.654 5.32677 107.563 5.58671 108.346 6.03949C108.654 6.2174 108.942 6.42408 109.206 6.65846C109.373 6.80548 109.531 6.96315 109.678 7.13041C109.825 6.96315 109.983 6.80548 110.151 6.65846C110.415 6.42515 110.703 6.2174 111.01 6.03949C111.793 5.58671 112.703 5.32677 113.673 5.32677C114.644 5.32677 115.554 5.58671 116.337 6.03949C116.645 6.2174 116.932 6.42408 117.196 6.65846C117.983 7.352 118.563 8.2746 118.833 9.32184C118.941 9.74799 119 10.1933 119 10.6535Z" fill="#111111"/>
<path d="M20.2417 13.3169V5.32677H22.9051L22.9051 13.3169C22.9051 13.8017 23.0351 14.2566 23.262 14.6486C23.7212 15.4444 24.582 15.9803 25.5685 15.9803C26.555 15.9803 27.4158 15.4444 27.875 14.6486C28.1019 14.2566 28.2319 13.8017 28.2319 13.3169V5.32677L30.8953 5.32677L30.8953 13.3169C30.8953 13.8017 31.0252 14.2566 31.2521 14.6486C31.7113 15.4444 32.5721 15.9803 33.5586 15.9803C34.5452 15.9803 35.406 15.4444 35.8651 14.6486C36.0921 14.2566 36.222 13.8017 36.222 13.3169V5.32677H38.8854V13.3169C38.8854 13.7772 38.8268 14.2225 38.7171 14.6486C38.4486 15.6959 37.868 16.6184 37.0807 17.312C36.8165 17.5453 36.5288 17.7531 36.222 17.931C35.439 18.3837 34.5292 18.6437 33.5586 18.6437C32.5881 18.6437 31.6783 18.3837 30.8953 17.931C30.5874 17.7531 30.2997 17.5464 30.0355 17.312C29.8683 17.165 29.7106 17.0073 29.5636 16.84C29.4165 17.0073 29.2589 17.165 29.0905 17.312C28.8263 17.5453 28.5387 17.7531 28.2319 17.931C27.4488 18.3837 26.539 18.6437 25.5685 18.6437C24.598 18.6437 23.6881 18.3837 22.9051 17.931C22.5972 17.7531 22.3096 17.5464 22.0454 17.312C21.2591 16.6185 20.6785 15.6959 20.409 14.6486C20.3003 14.2225 20.2417 13.7772 20.2417 13.3169Z" fill="#111111"/>
<path d="M61.3452 5.32677V7.99015H60.6527V7.99228C59.6971 8.01679 58.8672 8.5452 58.4187 9.32184C58.1917 9.71389 58.0618 10.1688 58.0618 10.6535V18.697H55.3984V10.6535C55.3984 10.1933 55.457 9.74692 55.5667 9.32184C55.6882 8.84883 55.8735 8.40244 56.1122 7.99015C56.5788 7.18155 57.2532 6.50718 58.0618 6.04055C58.8256 5.59737 59.7099 5.33955 60.6527 5.32783C60.6772 5.32677 60.7007 5.32677 60.7252 5.32677H61.3452Z" fill="#111111"/>
<path d="M65.6259 11.2395H62.9625V2.76992H65.6259V5.38004H68.9104V8.04343H65.6259V11.2395Z" fill="#111111"/>
<path d="M68.9092 18.697V16.0336H68.2168V16.0314C67.2611 16.0069 66.4312 15.4785 65.9827 14.7019C65.7558 14.3098 65.6258 13.8549 65.6258 13.3702V5.32677H62.9624V13.3702C62.9624 13.8304 63.021 14.2768 63.1308 14.7019C63.2522 15.1749 63.4376 15.6213 63.6762 16.0336C64.1428 16.8422 64.8172 17.5165 65.6258 17.9832C66.3897 18.4264 67.2739 18.6842 68.2168 18.6959C68.2413 18.697 68.2647 18.697 68.2892 18.697H68.9092Z" fill="#111111"/>
<path d="M144.333 16.773C144.128 16.9722 143.911 17.1577 143.682 17.3282C142.566 18.1647 141.18 18.6602 139.676 18.6602C137.828 18.6602 136.156 17.911 134.946 16.7016C134.726 16.481 134.522 16.2455 134.335 15.9962C133.752 15.2215 133.333 14.3157 133.134 13.3322C133.046 12.9017 133 12.4562 133 12.0002C133 11.5441 133.046 11.0987 133.134 10.6682C133.228 10.2046 133.371 9.7592 133.555 9.33616C133.88 8.59663 134.334 7.92637 134.892 7.35521C135.133 7.10799 135.394 6.87888 135.671 6.67216C136.787 5.83566 138.173 5.34016 139.676 5.34016C141.18 5.34016 142.566 5.83566 143.682 6.67216C143.932 6.85864 144.168 7.06217 144.39 7.28168L142.501 9.16566C141.777 8.44851 140.779 8.00416 139.676 8.00416C138.538 8.00416 137.51 8.47835 136.779 9.23812C136.75 9.27009 136.72 9.30312 136.691 9.33616C136.346 9.72084 136.074 10.1716 135.899 10.6682C135.751 11.0848 135.671 11.5334 135.671 12.0002C135.671 12.4669 135.751 12.9155 135.899 13.3322C136.098 13.8959 136.422 14.402 136.835 14.8176C137.561 15.5454 138.566 15.9962 139.676 15.9962C140.751 15.9962 141.725 15.5742 142.445 14.8901L144.333 16.773Z" fill="#111111"/>
<path d="M172.845 10.6701V18.6602H170.182V10.6701C170.182 10.1853 170.052 9.73043 169.825 9.33838C169.366 8.54256 168.505 8.00669 167.519 8.00669C166.532 8.00669 165.671 8.54256 165.212 9.33838C164.985 9.73043 164.855 10.1853 164.855 10.6701V18.6602H162.192V10.6701C162.192 10.1853 162.062 9.73043 161.835 9.33838C161.376 8.54256 160.515 8.00669 159.528 8.00669C158.542 8.00669 157.681 8.54256 157.222 9.33838C156.995 9.73043 156.865 10.1853 156.865 10.6701V18.6602H154.202V10.6701C154.202 10.2098 154.26 9.76453 154.37 9.33838C154.638 8.29114 155.219 7.36854 156.006 6.675C156.271 6.44169 156.558 6.23394 156.865 6.05603C157.648 5.60325 158.558 5.34331 159.528 5.34331C160.499 5.34331 161.409 5.60325 162.192 6.05603C162.5 6.23394 162.787 6.44062 163.052 6.675C163.219 6.82202 163.376 6.97969 163.523 7.14695C163.671 6.97969 163.828 6.82202 163.997 6.675C164.261 6.44169 164.548 6.23394 164.855 6.05603C165.638 5.60325 166.548 5.34331 167.519 5.34331C168.489 5.34331 169.399 5.60325 170.182 6.05603C170.49 6.23394 170.777 6.44062 171.042 6.675C171.828 7.36854 172.409 8.29114 172.678 9.33838C172.787 9.76453 172.845 10.2098 172.845 10.6701Z" fill="#111111"/>
<path d="M152.447 5.29004V7.95342H151.754V7.95555C150.799 7.98006 149.969 8.50847 149.52 9.28512C149.293 9.67717 149.163 10.1321 149.163 10.6168V18.6602H146.5V10.6168C146.5 10.1566 146.559 9.71019 146.668 9.28512C146.79 8.8121 146.975 8.36572 147.214 7.95342C147.68 7.14482 148.355 6.47045 149.163 6.00383C149.927 5.56064 150.811 5.30282 151.754 5.2911C151.779 5.29004 151.802 5.29004 151.827 5.29004H152.447Z" fill="#111111"/>
</svg>
